<?xml version="1.0" encoding="UTF-8" standalone="no"?>
<svg
   xmlns:dc="http://purl.org/dc/elements/1.1/"
   xmlns:cc="http://creativecommons.org/ns#"
   xmlns:rdf="http://www.w3.org/1999/02/22-rdf-syntax-ns#"
   xmlns:svg="http://www.w3.org/2000/svg"
   xmlns="http://www.w3.org/2000/svg"
   xmlns:sodipodi="http://sodipodi.sourceforge.net/DTD/sodipodi-0.dtd"
   xmlns:inkscape="http://www.inkscape.org/namespaces/inkscape"
   version="1.1"
   x="0px"
   y="0px"
   viewBox="0 0 66.528015 63.823002"
   enable-background="new 0 0 90 90"
   xml:space="preserve"
   id="svg16"
   sodipodi:docname="noun_Warning_32390_noCit.svg"
   width="66.528015"
   height="63.823002"
   inkscape:version="0.92.4 (unknown)"><metadata
     id="metadata22"><rdf:RDF><cc:Work
         rdf:about=""><dc:format>image/svg+xml</dc:format><dc:type
           rdf:resource="http://purl.org/dc/dcmitype/StillImage" /><dc:title></dc:title></cc:Work></rdf:RDF></metadata><defs
     id="defs20" /><sodipodi:namedview
     pagecolor="#ffffff"
     bordercolor="#666666"
     borderopacity="1"
     objecttolerance="10"
     gridtolerance="10"
     guidetolerance="10"
     inkscape:pageopacity="0"
     inkscape:pageshadow="2"
     inkscape:window-width="692"
     inkscape:window-height="481"
     id="namedview18"
     showgrid="false"
     fit-margin-top="0"
     fit-margin-left="0"
     fit-margin-right="0"
     fit-margin-bottom="0"
     inkscape:zoom="2.0977778"
     inkscape:cx="30.862212"
     inkscape:cy="21"
     inkscape:window-x="59"
     inkscape:window-y="27"
     inkscape:window-maximized="0"
     inkscape:current-layer="svg16" /><g
     id="g4"
     transform="translate(-14.137788,-13.427)"><path
       d="M 67.46,77.25 H 27.344 C 22,77.25 17.713,75.18 15.578,71.573 13.442,67.963 13.692,63.211 16.261,58.529 L 36.925,20.86 c 2.628,-4.792 6.348,-7.433 10.475,-7.433 4.131,0 7.85,2.641 10.479,7.433 l 20.664,37.671 c 2.569,4.68 2.818,9.431 0.683,13.041 C 77.091,75.18 72.804,77.25 67.46,77.25 Z M 47.401,19.813 c -1.665,0 -3.442,1.5 -4.876,4.115 L 21.86,61.599 c -1.459,2.656 -1.743,5.104 -0.789,6.722 0.957,1.615 3.246,2.544 6.273,2.544 H 67.46 c 3.027,0 5.316,-0.929 6.273,-2.544 0.954,-1.618 0.67,-4.065 -0.789,-6.719 L 52.28,23.928 c -1.434,-2.616 -3.211,-4.115 -4.879,-4.115 z"
       id="path2"
       inkscape:connector-curvature="0" /></g><g
     id="g10"
     transform="translate(-14.137788,-13.427)"><g
       id="g8"><path
         d="m 43.582,59.781 c 0,-2.262 1.581,-3.885 3.844,-3.885 2.263,0 3.753,1.623 3.798,3.885 0,2.217 -1.494,3.882 -3.798,3.882 -2.308,0 -3.844,-1.665 -3.844,-3.882 z M 44.993,53.762 44.01,34.426 h 6.787 l -0.938,19.336 z"
         id="path6"
         inkscape:connector-curvature="0"
         style="fill:#000000" /></g></g></svg>